<?xml version="1.0" standalone="no"?><!DOCTYPE svg PUBLIC "-//W3C//DTD SVG 1.1//EN" "http://www.w3.org/Graphics/SVG/1.1/DTD/svg11.dtd"><svg t="1547791307182" class="icon" style="" viewBox="0 0 1024 1024" version="1.1" xmlns="http://www.w3.org/2000/svg" p-id="1486" xmlns:xlink="http://www.w3.org/1999/xlink" width="200" height="200"><defs><style type="text/css"></style></defs><path d="M1024 479.13984v65.722368c-2.392064 17.739776-4.204544 35.581952-7.272448 53.204992-16.97792 97.630208-58.300416 183.681024-124.946432 257.038336-77.74208 85.573632-173.735936 139.165696-287.502336 160.352256-19.654656 3.659776-39.604224 5.7344-59.418624 8.542208h-65.722368c-2.689024-0.626688-5.347328-1.636352-8.062976-1.820672-41.02144-2.797568-81.342464-10.115072-119.867392-24.139776C163.651584 929.77152 48.576512 798.160896 8.300544 602.177536 4.419584 583.299072 2.715648 563.97824 0 544.862208v-65.722368c2.39616-17.741824 4.222976-35.581952 7.284736-53.20704 16.959488-97.634304 58.294272-183.678976 124.930048-257.040384 77.737984-85.583872 173.7216-139.184128 287.496192-160.356352C439.36768 4.880384 459.321344 2.80576 479.13984 0h65.722368c2.689024 0.62464 5.357568 1.355776 8.06912 1.859584 35.616768 6.596608 72.577024 9.119744 106.637312 20.402176 194.961408 64.57344 314.218496 198.0416 356.12672 399.579136 3.923968 18.860032 5.59104 38.189056 8.30464 57.298944z m-641.644544 19.922944l2.51904 1.75104c14.680064-0.872448 29.3888-2.740224 44.036096-2.363392 18.64704 0.485376 31.188992 12.310528 32.940032 29.61408 0.669696 6.590464 1.183744 13.867008-0.872448 19.93728-6.852608 20.248576-13.535232 40.751104-22.810624 59.936768-14.424064 29.831168-30.14656 58.980352-36.614144 91.912192-7.243776 36.878336 9.74848 61.636608 46.493696 67.926016 26.386432 4.517888 52.813824 3.856384 78.966784-0.954368 30.728192-5.650432 59.07456-16.758784 80.123904-41.377792 10.600448-12.394496 17.63328-26.527744 20.211712-43.579392-14.47936 3.702784-27.643904 7.585792-41.037824 10.37312-20.359168 4.23936-40.916992 8.472576-61.753344 3.45088-17.610752-4.243456-24.182784-15.104-18.075648-32.323584 4.304896-12.132352 11.159552-23.390208 17.227776-34.85696 8.026112-15.167488 17.457152-29.683712 24.369152-45.326336 11.95008-27.025408 23.568384-54.310912 33.165312-82.229248 8.361984-24.322048-1.60768-41.580544-26.116096-49.027072-10.02496-3.045376-20.639744-4.655104-31.105024-5.65248-39.585792-3.774464-77.7728 0.100352-110.78656 24.967168-11.020288 8.308736-20.629504 18.49344-30.881792 27.82208z m239.362048-176.32256c0.129024-36.005888-26.939392-63.092736-63.596544-63.635456-35.844096-0.53248-63.891456 27.07456-64.178176 63.166464-0.292864 36.685824 26.908672 63.643648 64.335872 63.768576 36.716544 0.124928 63.305728-26.404864 63.438848-63.299584z" p-id="1487"></path></svg>