<?xml version="1.0" standalone="no"?><!DOCTYPE svg PUBLIC "-//W3C//DTD SVG 1.1//EN" "http://www.w3.org/Graphics/SVG/1.1/DTD/svg11.dtd"><svg t="1543626453087" class="icon" style="" viewBox="0 0 1024 1024" version="1.1" xmlns="http://www.w3.org/2000/svg" p-id="2779" xmlns:xlink="http://www.w3.org/1999/xlink" width="128" height="128"><defs><style type="text/css"></style></defs><path d="M947.2 441.6H601.6v-345.6c0-35.84-29.44-64-64-64h-25.6c-35.84 0-64 29.44-64 64v345.6H102.4c-35.84 0-64 29.44-64 64v25.6c0 35.84 29.44 64 64 64h345.6v345.6c0 35.84 29.44 64 64 64h25.6c35.84 0 64-29.44 64-64v-345.6h345.6c35.84 0 64-29.44 64-64v-25.6c0-35.84-28.16-64-64-64z" p-id="2780"></path></svg>