<?xml version="1.0" standalone="no"?><!DOCTYPE svg PUBLIC "-//W3C//DTD SVG 1.1//EN" "http://www.w3.org/Graphics/SVG/1.1/DTD/svg11.dtd"><svg t="1544162752905" class="icon" style="" viewBox="0 0 1024 1024" version="1.1" xmlns="http://www.w3.org/2000/svg" p-id="827" xmlns:xlink="http://www.w3.org/1999/xlink" width="200" height="200"><defs><style type="text/css"></style></defs><path d="M663.201382 786.200576c-20.62336 19.4048-40.708096 38.293504-62.500864 58.79808-0.831488-1.169408-2.756608-4.829184-5.535744-7.653376-71.20896-72.323072-142.518272-144.543744-213.766144-216.82176-6.176768-6.270976-13.461504-12.255232-21.97504-7.95648-6.42048 3.244032-12.550144 9.639936-15.702016 16.13824-4.16768 8.597504 1.9456 15.83104 8.073216 22.04672 29.739008 30.150656 59.426816 60.35456 89.1392 90.527744 44.304384 44.986368 88.619008 89.96864 133.582848 135.61856-17.596416 17.563648-34.11968 35.575808-52.271104 51.771392-19.642368 17.528832-50.7904 17.12128-73.058304 0.755712-4.677632-3.44064-8.947712-7.514112-13.033472-11.659264-137.662464-139.587584-275.27168-279.226368-412.903424-418.842624-30.836736-31.279104-30.998528-69.615616-0.31744-100.52608 98.246656-98.983936 196.483072-197.974016 294.760448-296.925184 31.285248-31.49824 66.199552-31.397888 97.327104 0.733184 118.882304 122.71616 237.611008 245.577728 356.401152 368.377856 32.735232 33.839104 65.4848 67.659776 98.643968 101.926912-27.568128 30.099456-54.863872 59.91424-84.955136 92.7744-2.635776-4.288512-4.179968-8.300544-6.955008-11.094016-71.784448-72.265728-143.683584-144.420864-215.595008-216.557568-9.832448-9.863168-19.308544-12.013568-28.184576-6.68672-12.70784 7.622656-14.495744 23.031808-3.592192 34.46784 16.371712 17.174528 32.999424 34.105344 49.575936 51.083264 55.095296 56.418304 110.219264 112.809984 165.320704 169.222144 3.00032 3.069952 5.896192 6.232064 8.736768 9.242624l-58.812416 57.153536c-29.356032-28.532736-60.688384-58.083328-91.015168-88.63744-68.671488-69.175296-136.84736-138.852352-205.238272-208.306176-2.557952-2.596864-5.076992-5.30432-7.979008-7.469056-8.704-6.49216-19.294208-5.789696-26.906624 1.497088-7.907328 7.573504-9.29792 17.543168-3.237888 26.753024 2.37568 3.610624 5.548032 6.742016 8.597504 9.857024 94.959616 97.093632 189.949952 194.148352 284.921856 291.227648 2.742272 2.807808 5.330944 5.773312 8.454144 9.162752zM899.257958 541.663232c-89.911296-91.928576-179.4048-183.425024-272.5888-278.70208 8.972288-7.13728 17.99168-12.98432 25.391104-20.43904 26.740736-26.929152 52.799488-54.534144 79.368192-81.63328 25.511936-26.01984 62.984192-27.160576 88.764416-1.359872a19136.016384 19136.016384 0 0 1 181.348352 184.041472c26.247168 26.996736 26.691584 66.922496 1.128448 93.898752-32.62464 34.428928-66.3552 67.811328-99.639296 101.62176-0.735232 0.749568-1.759232 1.220608-3.772416 2.572288z" p-id="828"></path></svg>