<?xml version="1.0" standalone="no"?><!DOCTYPE svg PUBLIC "-//W3C//DTD SVG 1.1//EN" "http://www.w3.org/Graphics/SVG/1.1/DTD/svg11.dtd"><svg t="1544162694631" class="icon" style="" viewBox="0 0 1024 1024" version="1.1" xmlns="http://www.w3.org/2000/svg" p-id="717" xmlns:xlink="http://www.w3.org/1999/xlink" width="200" height="200"><defs><style type="text/css"></style></defs><path d="M828.981248 497.235968c-39.46496 0.366592-76.210176 8.68352-110.391296 25.96864-72.435712 36.62848-114.323456 97.368064-132.481024 174.880768-12.47232 53.248-11.139072 107.184128 10.694656 157.597696 13.248512 30.588928 34.187264 57.847808 51.746816 86.560768 1.763328 2.881536 4.038656 5.451776 6.834176 9.181184-3.319808 0.350208-5.783552 0.833536-8.247296 0.835584-185.321472 0.032768-370.644992 0.1024-555.964416-0.03072-42.098688-0.03072-76.742656-34.869248-76.756992-77.105152-0.096256-260.749312-0.090112-521.496576-0.008192-782.245888 0.012288-41.336832 34.973696-76.384256 76.43136-76.408832a655282.7904 655282.7904 0 0 1 662.450176-0.008192c40.517632 0.018432 75.913216 34.234368 76.032 74.53696 0.385024 133.443584 0.186368 266.889216 0.190464 400.334848 0 1.646592-0.28672 3.295232-0.530432 5.902336z m-414.226432-70.805504c-71.636992 0-143.280128-0.374784-214.910976 0.393216-11.02848 0.118784-22.515712 4.33152-32.776192 8.921088-4.98688 2.230272-9.760768 9.254912-10.94656 14.884864-4.102144 19.451904 23.738368 52.948992 43.665408 52.969472 145.321984 0.155648 290.646016 0.13312 435.968 0.016384 18.348032-0.014336 34.443264-13.633536 38.967296-31.916032 3.567616-14.40768-5.451776-32.643072-21.4528-40.237056-6.793216-3.223552-15.003648-4.786176-22.5792-4.82304-71.974912-0.350208-143.955968-0.208896-215.934976-0.208896z m-89.526272 282.228736c42.661888 0 85.321728 0.036864 127.981568-0.014336 22.704128-0.026624 41.762816-16.769024 42.440704-37.128192 0.688128-20.619264-18.071552-39.634944-41.013248-39.725056-86.001664-0.344064-172.005376-0.331776-258.00704-0.002048-22.325248 0.086016-41.222144 18.788352-40.996864 38.805504 0.23552 20.781056 19.47648 38.023168 42.63936 38.049792 42.317824 0.049152 84.637696 0.014336 126.95552 0.014336z m-35.362816-429.709312c31.397888 0 62.795776 0.135168 94.191616-0.045056 22.355968-0.129024 41.73824-18.118656 41.099264-38.397952-0.724992-23.01952-23.865344-38.56384-41.611264-38.295552-62.097408 0.940032-124.219392 0.333824-186.331136 0.428032-4.366336 0.006144-8.943616 0.28672-13.058048 1.589248-18.151424 5.748736-30.951424 24.776704-28.2624 41.357312 2.94912 18.194432 20.494336 33.163264 39.780352 33.298432 31.39584 0.219136 62.793728 0.059392 94.191616 0.065536z" p-id="718"></path><path d="M842.323968 580.5056c89.954304 0.03072 173.43488 83.296256 173.453312 173.006848 0.018432 89.87648-83.345408 173.088768-173.307904 172.988416-90.363904-0.098304-173.090816-82.812928-173.049856-173.021184 0.043008-93.1328 79.880192-173.002752 172.904448-172.97408z m-6.336512 148.199424c-21.264384-21.460992-41.332736-41.838592-61.548544-62.06464-8.927232-8.933376-20.846592-9.906176-28.112896-2.68288-7.395328 7.354368-6.5024 19.122176 2.4576 28.14976 18.018304 18.153472 36.179968 36.163584 54.25152 54.265856 2.310144 2.31424 4.425728 4.820992 7.880704 8.61184-3.64544 2.881536-6.842368 4.950016-9.490432 7.573504-17.928192 17.762304-35.749888 35.629056-53.58592 53.485568-7.124992 7.133184-8.74496 15.417344-3.745792 24.193024 4.323328 7.58784 11.99104 9.138176 19.621888 7.1168 4.274176-1.134592 8.312832-4.54656 11.593728-7.800832 20.054016-19.873792 39.862272-39.995392 62.040064-62.34112 3.104768 4.460544 5.00736 8.226816 7.831552 11.087872a4815.091712 4815.091712 0 0 0 53.5552 53.512192c7.194624 7.0656 17.063936 8.292352 24.281088 3.528704 7.735296-5.105664 8.996864-12.855296 6.4512-20.772864-1.36192-4.235264-4.97664-8.003584-8.237056-11.327488-19.525632-19.89632-39.243776-39.604224-60.829696-61.315072 3.590144-2.537472 7.0144-4.323328 9.644032-6.918144a7906.861056 7906.861056 0 0 0 55.058432-54.902784c6.6048-6.643712 7.141376-14.659584 3.139584-22.58944-4.220928-8.364032-12.331008-9.617408-20.30592-7.550976-4.272128 1.107968-8.2944 4.593664-11.577344 7.860224-19.816448 19.714048-39.391232 39.66976-60.372992 60.880896z" p-id="719"></path></svg>