<?xml version="1.0" standalone="no"?><!DOCTYPE svg PUBLIC "-//W3C//DTD SVG 1.1//EN" "http://www.w3.org/Graphics/SVG/1.1/DTD/svg11.dtd"><svg t="1544162768261" class="icon" style="" viewBox="0 0 1024 1024" version="1.1" xmlns="http://www.w3.org/2000/svg" p-id="936" xmlns:xlink="http://www.w3.org/1999/xlink" width="200" height="200"><defs><style type="text/css"></style></defs><path d="M1021.929472 513.046528c0 129.865728 0.038912 259.735552-0.016384 389.603328-0.028672 74.12736-44.81024 119.257088-118.464512 119.269376-261.005312 0.049152-522.018816 0.049152-783.024128-0.002048-72.876032-0.016384-118.341632-45.160448-118.35392-117.491712C2.021376 642.779136 2.02752 381.136896 2.064384 119.488512c0.016384-71.31136 45.725696-117.387264 116.61312-117.4016C380.962816 2.023424 643.244032 2.031616 905.5232 2.082816c70.129664 0.014336 116.291584 45.80352 116.365312 115.63008 0.139264 131.77856 0.04096 263.55712 0.04096 395.333632zM148.113408 357.988352c123.772928 53.757952 243.10784 105.740288 362.725376 157.063168 5.830656 2.500608 15.013888 1.04448 21.213184-1.73056 110.123008-49.340416 220.033024-99.162112 329.951232-148.953088 3.514368-1.593344 6.651904-4.020224 10.827776-6.588416-3.254272-2.347008-4.644864-3.653632-6.27712-4.483072-107.64288-54.587392-215.209984-109.328384-323.198976-163.217408-6.412288-3.201024-17.258496-1.865728-24.324096 1.24928-72.054784 31.778816-143.755264 64.366592-215.558144 96.710656-50.249728 22.64064-100.503552 45.256704-155.359232 69.94944z m1.26976 175.040512c5.890048 3.147776 8.382464 4.712448 11.053056 5.871616 115.857408 50.3808 231.645184 100.927488 347.815936 150.577152 7.286784 3.117056 18.669568 1.615872 26.329088-1.810432 107.804672-48.201728 215.298048-97.101824 322.852864-145.866752 4.876288-2.207744 9.59488-4.767744 17.524736-8.732672-35.6352-18.096128-68.558848-34.162688-100.780032-51.535872-11.333632-6.109184-20.430848-5.988352-31.95904-0.651264-67.991552 31.455232-136.47872 61.847552-204.433408 93.382656-13.23008 6.139904-24.14592 5.90848-37.367808 0.034816-70.207488-31.178752-140.775424-61.538304-211.32288-91.938816-5.482496-2.359296-12.988416-5.679104-17.502208-3.751936-40.046592 17.094656-79.628288 35.274752-122.210304 54.421504z m0.233472 159.035392c5.543936 3.129344 7.571456 4.528128 9.791488 5.494784 116.453376 50.745344 232.849408 101.638144 349.595648 151.707648 6.746112 2.895872 17.332224 1.3312 24.481792-1.86368 108.43136-48.49664 216.594432-97.601536 324.784128-146.632704 4.933632-2.238464 9.576448-5.117952 16.238592-8.71424-35.19488-17.915904-68.274176-34.11968-100.66944-51.593216-11.393024-6.141952-20.606976-5.433344-31.905792-0.227328-68.651008 31.633408-137.705472 62.396416-206.32576 94.09536-11.40736 5.267456-20.793344 5.476352-32.32768 0.370688-70.854656-31.37536-141.953024-62.205952-213.213184-92.655616-6.811648-2.910208-16.525312-4.89472-22.775808-2.267136-38.619136 16.197632-76.632064 33.847296-117.673984 52.28544z" p-id="937"></path></svg>