<?xml version="1.0" standalone="no"?><!DOCTYPE svg PUBLIC "-//W3C//DTD SVG 1.1//EN" "http://www.w3.org/Graphics/SVG/1.1/DTD/svg11.dtd"><svg t="1544255315939" class="icon" style="" viewBox="0 0 1024 1024" version="1.1" xmlns="http://www.w3.org/2000/svg" p-id="1119" xmlns:xlink="http://www.w3.org/1999/xlink" width="128" height="128"><defs><style type="text/css"></style></defs><path d="M201.325969 2.043908h660.182315c9.984491 3.051555 20.343017 5.226273 29.890112 9.30387 47.606707 20.338929 76.000679 57.979541 92.644223 105.516755 2.738837 7.817948 4.014236 16.551568 4.020367 24.862098 0.200303 294.091804 0.1676 588.179521 0.1676 882.271325h-57.229426c-0.882968-0.991295-1.628995-2.164499-2.665256-2.949359a62221.700827 62221.700827 0 0 0-113.994887-86.338766c-9.140357-6.900234-16.09782-6.638613-25.994423 0.531416-34.462334 24.968381-68.916493 49.95107-103.372696 74.927627-10.877679 7.883354-16.823408 7.893573-27.60911 0.073581-34.452115-24.984733-68.902186-49.971509-103.362477-74.941935-10.319692-7.476616-16.482075-7.474572-26.785415-0.006131a331675.178101 331675.178101 0 0 0-103.360433 74.948066c-10.783659 7.822036-16.717124 7.830212-27.611154-0.067449-34.454159-24.980645-68.902186-49.971509-103.358389-74.948066-10.211365-7.403035-16.784573-7.396903-26.787459 0.128766-13.874048 10.440283-27.752184 20.880565-41.534257 31.443482C199.750116 985.815709 175.002477 1004.92625 150.228267 1023.997956H92.99884l0.002044-885.637641c0-4.766394-0.057229-9.536875 0.096064-14.299181 1.708707-53.419582 38.758629-101.694647 89.772531-116.948334C188.980765 5.28759 195.171762 3.726044 201.325969 2.043908z m176.264591 645.613338c1.74141 2.446558 3.740352 6.973814 7.165941 9.731047 7.535889 6.062231 15.498955 4.692813 23.744081 0.171688 35.492464-19.464137 70.85003-39.230772 107.006764-57.392939 7.858827-3.950874 20.655735-5.436796 28.030156-1.75163 38.92623 19.447786 76.977667 40.673771 115.039323 61.809825 12.476015 6.928848 19.603123 5.087287 23.249455-8.79698 1.32854-5.064804 1.547238-10.830669 0.660182-16.001757-7.349894-42.91185-15.188281-85.741945-22.476857-128.664014-0.566163-3.343834 0.809388-8.251257 3.125135-10.663069 31.373989-32.667783 62.925799-65.172054 94.827116-97.324772 5.788348-5.833314 7.999856-11.597135 5.481762-19.133024-2.605983-7.797509-8.124535-12.357468-16.316518-13.547022-42.758557-6.207349-85.500763-12.55164-128.298156-18.491237-8.35754-1.158896-12.886841-4.809316-16.39623-12.731503-17.773825-40.093301-36.077022-79.957685-54.719508-119.656512-4.114387-8.76019-13.26292-12.72946-22.280642-11.378436-5.802655 0.868661-13.502057 5.228317-15.891385 10.174574a3633.181539 3633.181539 0 0 0-55.099675 119.486867c-4.001972 9.117874-8.90122 13.017651-18.481017 14.311445-42.817831 5.778128-85.564125 12.095848-128.300199 18.464666-14.754973 2.199245-20.539232 16.056942-12.048838 28.385795 2.289177 3.319307 5.379566 6.131724 8.312574 8.958449 30.159908 29.074593 60.248279 58.222766 90.630973 87.06231 8.01212 7.605382 10.603795 16.269508 8.541492 26.754757-4.269724 21.689953-8.557843 43.379905-12.807128 65.073946-4.118475 21.017507-8.200159 42.049321-12.698801 65.147526z" p-id="1120"></path></svg>