<?xml version="1.0" standalone="no"?><!DOCTYPE svg PUBLIC "-//W3C//DTD SVG 1.1//EN" "http://www.w3.org/Graphics/SVG/1.1/DTD/svg11.dtd"><svg t="1544255671651" class="icon" style="" viewBox="0 0 1026 1024" version="1.1" xmlns="http://www.w3.org/2000/svg" p-id="1608" xmlns:xlink="http://www.w3.org/1999/xlink" width="128.25" height="128"><defs><style type="text/css"></style></defs><path d="M2.048 692.224v-40.96c0.651264-2.220032 1.613824-4.401152 1.906688-6.668288C10.139648 596.596736 31.06816 556.425216 67.584 524.519424c26.918912-23.519232 58.025984-39.344128 92.239872-48.990208 6.987776-1.968128 8.99072-4.558848 8.613888-11.773952-0.495616-9.459712 0.321536-19.103744 1.615872-28.526592 13.09696-95.444992 124.059648-144.893952 200.947712-87.023616 1.748992 1.318912 3.584 2.523136 5.881856 4.134912 1.755136-4.139008 3.055616-7.243776 4.384768-10.334208 44.777472-104.179712 133.21216-162.95936 243.953664-159.238144 71.95648 2.41664 134.555648 27.942912 180.672512 85.786624 36.489216 45.768704 52.60288 99.5328 58.294272 156.874752 1.605632 16.195584 1.871872 32.524288 2.742272 48.596992 7.84384 2.533376 15.409152 4.610048 22.706176 7.395328 58.382336 22.298624 103.698432 58.652672 125.227008 119.345152 5.289984 14.911488 7.540736 30.90432 11.188224 46.399488v40.96c-0.712704 2.205696-1.665024 4.364288-2.101248 6.623232-10.162176 52.65408-36.554752 94.306304-83.474432 121.532416-33.693696 19.554304-70.356992 29.376512-109.309952 29.401088-212.518912 0.137216-425.039872 0.385024-637.556736-0.38912-23.177216-0.086016-47.07328-3.928064-69.351424-10.430464-56.75008-16.566272-98.031616-51.054592-114.978816-109.938688C6.193152 714.21952 4.42368 703.133696 2.048 692.224z m691.31264-131.227648l-152.426496-149.159936-155.113472 150.290432h93.89056v181.39136h120.541184v-182.521856h93.108224z" p-id="1609"></path></svg>