<?xml version="1.0" standalone="no"?><!DOCTYPE svg PUBLIC "-//W3C//DTD SVG 1.1//EN" "http://www.w3.org/Graphics/SVG/1.1/DTD/svg11.dtd"><svg t="1544255586862" class="icon" style="" viewBox="0 0 1024 1024" version="1.1" xmlns="http://www.w3.org/2000/svg" p-id="1241" xmlns:xlink="http://www.w3.org/1999/xlink" width="128" height="128"><defs><style type="text/css"></style></defs><path d="M655.073852 1024H178.842315c-0.510978-0.427178-0.960639-1.097581-1.543153-1.242699-56.972008-14.223585-85.206611-50.435577-85.206611-109.353389 0-265.900711-0.004088-531.799377 0.022483-797.698044 0-6.80214 0.051098-13.628806 0.572295-20.404375 3.237557-42.12503 32.925381-78.093796 73.695298-89.533573C170.556295 4.596758 174.689086 3.288655 178.842315 2.043912h670.403194c1.195689 0.570251 2.334148 1.402124 3.593198 1.676008 50.433533 10.986028 82.976703 50.084024 83.040063 101.8461 0.259577 207.69418 0.15125 415.390403-0.13081 623.086627-0.006132 4.762315-2.542627 10.634475-5.866028 14.105038-27.320974 28.516663-55.136575 56.561182-82.751872 84.795784C783.096335 893.02202 719.089182 958.517142 655.073852 1024z m-139.435688-695.612806c75.581828 0 151.161613 0.016351 226.743441-0.016352 14.736607-0.006132 21.414068-4.369884 25.986299-18.072271 5.444982-16.318595 5.414323-32.817054-0.936112-48.961916-4.147098-10.542499-11.701397-15.813749-23.57857-15.801485-151.842236 0.157381-303.684471 0.157381-455.526707 0-11.895569-0.012263-19.329277 5.336655-23.554044 15.846451-5.784271 14.395273-6.027497 29.234076-2.33006 44.099449 4.371928 17.573557 11.454084 22.899992 29.520224 22.902036 74.557828 0.012263 149.117701 0.006132 223.675529 0.004088z m0.398563 100.836407c-75.923162 0-151.848367 0.15125-227.771529-0.157381-12.05295-0.04701-19.435561 5.222196-23.476376 15.752431-6.466938 16.8541-6.487377 33.941206-0.13081 50.850491 3.977453 10.583377 11.198595 15.975218 23.282204 15.958866 152.187657-0.216655 304.377357-0.212567 456.565014-0.012263 11.588982 0.016351 18.793772-5.023936 22.791664-15.167873 6.485333-16.459625 6.693812-33.256495 0.793038-49.885764-4.752096-13.393756-10.912447-17.330331-25.303633-17.332375-75.581828-0.014307-151.165701-0.008176-226.749572-0.006132zM424.469461 694.93014c45.591505 0 91.185054-0.212567 136.772471 0.145117 11.578762 0.091976 18.765158-4.976926 22.830499-15.096335 7.029014-17.497932 7.080112-35.126675-0.120591-52.620519-4.004024-9.726978-10.847042-14.816319-21.972056-14.793836-91.522299 0.185996-183.046643 0.206435-274.568942-0.020439-11.644168-0.028615-18.671138 5.383665-22.568878 15.476503-6.499641 16.827529-6.626363 33.939162-0.228918 50.805525 4.641725 12.238946 10.85113 16.085589 24.099768 16.09172 45.254259 0.028615 90.506475 0.012263 135.756647 0.012264z m397.293605 47.473948l-1.318323-2.348455c-34.679058 0-69.36016-0.110371-104.037174 0.077668-8.47406 0.042922-17.023745 0.50689-25.399697 1.731194-19.966978 2.914619-30.276471 12.829637-34.108806 32.434842-1.167074 5.970267-1.843609 12.134707-1.878355 18.213302-0.196216 36.422515-0.153293 72.849118-0.118547 109.271632 0.002044 2.045956 0.662228 4.089868 1.015824 6.135825l-1.573812-2.691833c55.806978-54.276088 111.611912-108.552176 167.41889-162.824175z" p-id="1242"></path></svg>