<?xml version="1.0" standalone="no"?><!DOCTYPE svg PUBLIC "-//W3C//DTD SVG 1.1//EN" "http://www.w3.org/Graphics/SVG/1.1/DTD/svg11.dtd"><svg t="1544255645380" class="icon" style="" viewBox="0 0 1024 1024" version="1.1" xmlns="http://www.w3.org/2000/svg" p-id="1485" xmlns:xlink="http://www.w3.org/1999/xlink" width="128" height="128"><defs><style type="text/css"></style></defs><path d="M910.562874 1024H115.481038c-49.724295-20.050778-61.002603-36.992766-61.002603-91.636758 0-281.943377 0-563.886754 0.004088-845.828088 0-4.427114-0.102196-8.860359 0.118547-13.277254 1.651481-33.187002 22.63224-59.61683 54.44982-68.781732C111.246052 3.844599 113.341062 2.861477 115.481038 2.043912h799.169661c49.71612 20.110052 61.002603 37.064303 61.002602 91.646978l0.002044 838.743888c0 51.907194-15.541908 73.795449-64.440463 90.792623-0.273884 0.096064-0.437397 0.508934-0.652008 0.772599zM644.138922 794.176383c0 44.275226-0.067449 88.552495 0.040878 132.827721 0.034747 14.530172 7.963082 19.496878 20.259258 12.457645 27.453828-15.719729 54.846339-31.562092 81.922044-47.919521 6.080639-3.67291 10.141892-3.873214 16.310419-0.130811 27.051178 16.402395 54.333317 32.451194 82.016064 47.756008 4.292216 2.372982 12.38202 2.160415 16.328814-0.457836 3.229381-2.144064 3.981541-9.645222 3.995849-14.775441 0.222786-86.845828 0.063361-173.695745 0.396518-260.543617 0.020439-5.093429 2.129756-11.548104 5.602364-15.053413 47.839808-48.262898 62.349541-117.418667 37.002986-179.077366-25.313852-61.578986-85.549988-101.756168-152.966387-102.025964-67.440926-0.267752-128.179864 40.015713-153.953597 102.109765-25.352687 61.078228-11.08618 130.432255 36.130235 178.361996 3.750579 3.805764 6.552782 10.372854 6.616144 15.695201 0.529373 43.584383 0.298411 87.183074 0.298411 130.775633z m-128.983122-573.278531c107.605844 0 215.213733 0.002044 322.817533-0.008175 4.08578 0 8.196088 0.15125 12.25121-0.224831 17.052359-1.581988 30.781317-15.18218 33.017357-32.483896 2.074571-16.038579-8.65188-33.08685-24.778347-37.953405-6.066331-1.831345-12.739705-2.289182-19.13715-2.29327-215.894355-0.112415-431.788711-0.100152-647.681022-0.040878-5.081166 0-10.282922 0.181908-15.223058 1.238611-14.52404 3.10879-24.375697 11.848559-28.300008 26.290842-6.583441 24.224447 11.184287 45.425948 38.084216 45.4423 109.649756 0.075625 219.299513 0.032703 328.949269 0.032702z m-183.529006 73.274252c-48.683944 0-97.369932-0.075625-146.053876 0.038834-18.654786 0.042922-33.135904 10.736671-37.497613 27.132934-6.391313 24.028232 10.983984 45.307401 38.059689 45.763194 26.548375 0.445573 53.10697 0.118547 79.663521 0.118547 69.450092-0.002044 138.902228 0.153293 208.354363-0.098108 24.692503-0.087888 41.240016-15.807617 40.712687-37.47513-0.523242-21.536703-16.659928-35.457788-41.274763-35.474139-47.318611-0.034747-94.641309-0.012263-141.964008-0.006132z m-37.898219 218.847808c35.737804 0 71.475609 0.067449 107.211369-0.024527 23.249501-0.05723 39.891034-14.93691 40.27529-35.729629 0.398563-21.536703-15.948647-37.325924-39.631458-37.383153-71.473565-0.175776-142.94713-0.173733-214.422738 0.002044-23.492727 0.05723-40.731082 16.134643-40.518515 36.923273 0.216655 21.293477 16.929725 36.156806 40.894595 36.197685 35.398515 0.059273 70.794986 0.016351 106.191457 0.014307z" p-id="1486"></path><path d="M750.888367 622.314028c-53.738539-3.580934-91.458938-45.417772-88.045605-97.65608 3.194635-48.91695 47.888862-88.200942 96.274396-84.624096 51.639441 3.818028 91.054244 47.012024 87.414036 95.79612-3.781238 50.615441-47.028375 89.723657-95.642827 86.484056zM791.460024 696.035896v20.670084c0 32.63719 0.03679 65.272335-0.022483 97.907481-0.020439 11.809725-2.03778 13.863856-12.185804 8.596695-16.741685-8.688671-32.383745-8.124551-49.096815-0.051098-10.689661 5.160878-12.384064 3.450124-12.404503-8.218571-0.067449-37.056128-0.034747-74.112255 0.002044-111.166339 0.002044-2.344367 0.353597-4.690778 0.598866-7.740296l73.108695 0.002044z" p-id="1487"></path></svg>