<?xml version="1.0" standalone="no"?><!DOCTYPE svg PUBLIC "-//W3C//DTD SVG 1.1//EN" "http://www.w3.org/Graphics/SVG/1.1/DTD/svg11.dtd"><svg t="1544255616231" class="icon" style="" viewBox="0 0 1026 1024" version="1.1" xmlns="http://www.w3.org/2000/svg" p-id="1363" xmlns:xlink="http://www.w3.org/1999/xlink" width="128.25" height="128"><defs><style type="text/css"></style></defs><path d="M2.048 921.6V155.648c11.99104-29.827072 34.553856-40.9088 66.033664-40.83712 213.499904 0.477184 427.001856 0.249856 640.503808 0.249856 85.264384 0 170.528768 0.057344 255.791104-0.045056 17.5104-0.022528 33.847296 4.120576 45.027328 17.831936C1016.680448 141.768704 1020.616704 153.413632 1026.048 163.84v747.52c-14.512128 39.192576-28.45696 48.779264-70.944768 48.779264H236.449792c-58.693632 0-117.387264-0.016384-176.080896 0.008192-19.165184 0.008192-35.465216-6.459392-47.566848-21.643264C8.665088 933.310464 5.60128 927.258624 2.048 921.6z m199.61856-233.736192c4.01408-67.344384 63.0272-106.786816 121.102336-109.473792 31.905792-1.478656 61.661184 5.818368 88.270848 23.851008 29.995008 20.328448 47.253504 48.412672 49.102848 85.0944h72.71424v-220.22144h-180.289536c21.327872-22.114304 42.108928-44.136448 63.571968-65.468416 3.794944-3.770368 10.407936-6.479872 15.783936-6.592512 30.01344-0.62464 60.04736-0.282624 90.07104-0.323584 3.590144-0.006144 7.17824-0.339968 10.807296-0.524288v-72.660992c-47.884288 0-94.951424-0.14336-142.012416 0.299008-3.411968 0.034816-7.671808 3.653632-10.041344 6.750208-33.5872 43.876352-66.830336 88.014848-100.460544 131.856384-2.828288 3.6864-7.483392 7.309312-11.870208 8.247296-31.315968 6.699008-62.787584 12.658688-94.19776 18.919424-27.305984 5.443584-54.595584 10.973184-81.891328 16.46592v183.1936c2.504704 0.229376 4.470784 0.565248 6.436864 0.567296 34.066432 0.03072 68.134912 0.02048 102.90176 0.02048z m129.122304 109.285376c50.866176 0.33792 91.162624-39.170048 91.805696-90.007552 0.64512-51.085312-40.361984-92.424192-91.824128-92.563456-50.91328-0.139264-92.448768 40.554496-92.768256 90.888192-0.325632 50.782208 40.718336 91.336704 92.786688 91.682816zM606.9248 394.1376h330.254336v-71.723008H606.9248v71.723008z m330.295296 73.940992H606.9248v72.06912h330.295296v-72.06912zM606.763008 686.979072h330.143744v-71.737344H606.763008v71.737344z" p-id="1364"></path></svg>