<?xml version="1.0" standalone="no"?><!DOCTYPE svg PUBLIC "-//W3C//DTD SVG 1.1//EN" "http://www.w3.org/Graphics/SVG/1.1/DTD/svg11.dtd"><svg t="1543892271341" class="icon" style="" viewBox="0 0 1024 1024" version="1.1" xmlns="http://www.w3.org/2000/svg" p-id="4089" xmlns:xlink="http://www.w3.org/1999/xlink" width="128" height="128"><defs><style type="text/css"></style></defs><path d="M229.84920693 645.83459091l247.19238281 247.19238281c19.3057251 19.30649757 50.60955048 19.30727005 69.91527557 0l247.19238281-247.19238281c19.3057251-19.30649757 19.3057251-50.60955048 0-69.91682052-19.3057251-19.308815-50.60955048-19.308815-69.91527557 0l-162.79626846 162.79935836 0-572.78569221c0-27.30239868-22.13298798-49.43847656-49.43847657-49.43847656-27.30317117 0-49.43847656 22.13607788-49.43847656 49.43847656l0 572.78569221-162.79626846-162.79626846c-9.65286255-9.65363503-22.30602264-14.48238373-34.95763779-14.48238373-12.65084267 0-25.30400276 4.82643127-34.95686531 14.47929383-19.30727005 19.31035995-19.30727005 50.60955048 0 69.91682052z" p-id="4090"></path></svg>