<?xml version="1.0" standalone="no"?><!DOCTYPE svg PUBLIC "-//W3C//DTD SVG 1.1//EN" "http://www.w3.org/Graphics/SVG/1.1/DTD/svg11.dtd"><svg t="1548300288458" class="icon" style="" viewBox="0 0 1024 1024" version="1.1" xmlns="http://www.w3.org/2000/svg" p-id="7190" xmlns:xlink="http://www.w3.org/1999/xlink" width="200" height="200"><defs><style type="text/css"></style></defs><path d="M822.185081 512.022872c0 171.317899-138.878601 310.1965-310.196499 310.1965S201.837803 683.32934 201.837803 512.022872z" p-id="7191" fill="#bfbfbf"></path><path d="M511.988582 1023.99912a508.798614 508.798614 0 0 1-199.276505-40.246219 510.250267 510.250267 0 0 1-162.733715-109.73124 510.238836 510.238836 0 0 1-109.73124-162.733715A508.787184 508.787184 0 0 1 0.000904 512.000011 508.787184 508.787184 0 0 1 40.247122 312.712077a510.238836 510.238836 0 0 1 109.73124-162.733715 510.238836 510.238836 0 0 1 162.733715-109.731241A508.787184 508.787184 0 0 1 512.000012 0.000903a508.787184 508.787184 0 0 1 199.287935 40.280509 510.238836 510.238836 0 0 1 162.733715 109.731241 510.238836 510.238836 0 0 1 109.73124 162.733715 508.787184 508.787184 0 0 1 40.246218 199.287934 508.787184 508.787184 0 0 1-40.32623 199.276505 510.238836 510.238836 0 0 1-109.73124 162.733715 510.250267 510.250267 0 0 1-162.733716 109.73124 508.798614 508.798614 0 0 1-199.219352 40.223358z m0-983.946314a469.009609 469.009609 0 0 0-183.708385 37.080015 470.426971 470.426971 0 0 0-150.02318 101.158487 470.426971 470.426971 0 0 0-101.158487 150.02318A468.998179 468.998179 0 0 0 40.018515 512.022872a468.998179 468.998179 0 0 0 37.080015 183.696954 470.415541 470.415541 0 0 0 101.158487 150.02318 470.426971 470.426971 0 0 0 150.02318 101.158487 469.009609 469.009609 0 0 0 183.708385 37.091446 469.009609 469.009609 0 0 0 183.708384-37.080015 470.426971 470.426971 0 0 0 150.02318-101.158487 470.415541 470.415541 0 0 0 101.158487-150.02318 468.998179 468.998179 0 0 0 37.080015-183.708385 468.998179 468.998179 0 0 0-37.080015-183.708384 470.426971 470.426971 0 0 0-101.158487-150.02318 470.426971 470.426971 0 0 0-150.02318-101.158487A469.009609 469.009609 0 0 0 511.988582 40.041375z" p-id="7192" fill="#bfbfbf"></path><path d="M246.07321 381.797037a73.257033 61.918138 90 1 0 123.836276 0 73.257033 61.918138 90 1 0-123.836276 0Z" p-id="7193" fill="#bfbfbf"></path><path d="M656.422327 381.797037a73.257033 61.918138 90 1 0 123.836276 0 73.257033 61.918138 90 1 0-123.836276 0Z" p-id="7194" fill="#bfbfbf"></path></svg>