<svg class="icon" viewBox="0 0 1024 1024" xmlns="http://www.w3.org/2000/svg" width="64" height="64"><defs><style/></defs><path d="M510.287 64.51C261.261 64.51 63.34 262.441 63.34 511.456c0 249.02 197.92 446.958 446.947 446.958 249.014 0 446.96-197.939 446.96-446.958 0-249.015-197.946-446.948-446.96-446.948zm274.56 721.506c-76.628 76.62-172.399 114.934-274.56 114.934s-204.323-38.313-274.56-114.934c-70.226-76.615-114.93-172.392-114.93-274.56 0-102.156 38.314-204.318 114.93-274.554 76.626-70.232 172.398-114.935 274.56-114.935 102.161 0 204.322 38.32 274.56 114.935 70.238 76.62 114.93 172.398 114.93 274.554-.002 102.169-38.315 204.323-114.93 274.56zM318.733 422.068c0-15.04 6.195-29.99 16.828-40.63 10.645-10.639 25.595-16.828 40.642-16.828 15.046 0 29.996 6.19 40.641 16.828 10.621 10.64 16.83 25.59 16.83 40.63 0 15.046-6.208 30.002-16.83 40.641-10.645 10.634-25.595 16.83-40.641 16.83-15.047 0-29.997-6.196-40.642-16.83-10.633-10.639-16.828-25.595-16.828-40.641zm287.327 0c0-15.04 6.196-29.99 16.828-40.63 10.645-10.639 25.595-16.828 40.643-16.828 15.045 0 29.995 6.19 40.628 16.828 10.645 10.64 16.828 25.59 16.828 40.63 0 15.046-6.183 30.002-16.828 40.641-10.633 10.634-25.583 16.83-40.628 16.83-15.048 0-29.997-6.196-40.643-16.83-10.632-10.639-16.828-25.595-16.828-40.641zM516.677 632.78c-89.395 0-166.022 38.307-210.713 102.16 0 0-6.39 19.158 6.39 31.925 12.767 12.767 38.3 12.767 38.3 12.767 6.39-12.767 19.17-25.534 31.925-38.313 38.313-31.918 83.004-44.692 134.098-44.692 51.08 0 102.16 19.151 134.085 44.692l31.923 31.93s19.157 0 31.923-6.383c12.768-12.768 12.768-25.547 12.768-25.547-44.69-70.232-121.317-108.54-210.699-108.54zm0 0"/></svg>