<?xml version="1.0" standalone="no"?><!DOCTYPE svg PUBLIC "-//W3C//DTD SVG 1.1//EN" "http://www.w3.org/Graphics/SVG/1.1/DTD/svg11.dtd"><svg t="1544595599962" class="icon" style="" viewBox="0 0 1024 1024" version="1.1" xmlns="http://www.w3.org/2000/svg" p-id="2195" xmlns:xlink="http://www.w3.org/1999/xlink" width="128" height="128"><defs><style type="text/css"></style></defs><path d="M953.6 332.8V262.4c0-57.6-44.8-121.6-108.8-121.6H531.2l-12.8-25.6c-12.8-25.6-38.4-38.4-64-38.4H121.6C64 76.8 19.2 121.6 19.2 179.2v633.6c0 57.6 44.8 102.4 102.4 102.4h780.8c57.6 0 102.4-44.8 102.4-102.4v-384c0-38.4-19.2-70.4-51.2-96z m-108.8-128c19.2 0 44.8 32 44.8 64v44.8H620.8l-57.6-108.8h281.6z m96 608c0 25.6-19.2 38.4-38.4 38.4H121.6c-19.2 0-38.4-19.2-38.4-38.4V179.2c0-25.6 19.2-38.4 38.4-38.4h332.8c6.4 0 6.4 0 12.8 6.4L576 352c6.4 12.8 12.8 19.2 25.6 19.2h288c19.2 0 57.6 32 57.6 57.6l-6.4 384z" p-id="2196"></path></svg>