<?xml version="1.0" standalone="no"?><!DOCTYPE svg PUBLIC "-//W3C//DTD SVG 1.1//EN" "http://www.w3.org/Graphics/SVG/1.1/DTD/svg11.dtd"><svg t="1547791257528" class="icon" style="" viewBox="0 0 1024 1024" version="1.1" xmlns="http://www.w3.org/2000/svg" p-id="1377" xmlns:xlink="http://www.w3.org/1999/xlink" width="200" height="200"><defs><style type="text/css"></style></defs><path d="M1022.681088 473.352192v76.972032c-2.107392 15.034368-4.036608 30.099456-6.352896 45.099008-30.656512 198.641664-186.46016 367.597568-382.031872 413.579264-27.119616 6.375424-54.872064 10.063872-82.331648 14.995456h-79.931392c-23.642112-3.995648-47.720448-6.303744-70.858752-12.251136-201.46176-51.816448-330.817536-177.625088-385.110016-378.9312-7.247872-26.86976-9.940992-54.964224-14.747648-82.491392v-76.972032c2.844672-17.360896 4.927488-34.885632 8.650752-52.051968C55.670784 210.745344 182.704128 76.285952 389.732352 17.793024 416.4608 10.24 444.565504 7.565312 472.03328 2.635776h79.931392c17.3568 2.844672 34.881536 4.927488 52.051968 8.648704 210.61632 45.641728 344.932352 172.826624 403.501056 379.768832 7.565312 26.722304 10.22976 54.831104 15.163392 82.29888z m-534.818816 120.221696c0 8.38656-0.438272 16.797696 0.086016 25.14944 1.214464 19.156992 9.945088 28.919808 29.014016 31.197184 7.655424 0.91136 15.751168-0.08192 23.42912-1.44384 18.814976-3.33824 25.321472-11.24352 25.626624-30.027776 0.247808-15.292416 0.370688-30.584832 0.325632-45.877248-0.043008-14.895104 5.90848-26.671104 17.731584-35.59424 14.954496-11.282432 30.109696-22.298624 44.814336-33.896448 57.52832-45.38368 56.571904-128.712704-0.428032-175.048704-64.999424-52.840448-160.53248-46.09024-219.045888-7.706624-39.204864 25.72288-55.77728 65.163264-56.195072 111.306752-0.176128 19.406848 9.742336 29.71648 28.889088 33.181696 27.6992 5.015552 43.186176-3.70688 48.2304-31.5904 13.1072-72.474624 94.531584-84.488192 140.388352-51.359744 23.988224 17.332224 27.65824 40.880128 8.25344 63.34464-10.221568 11.83744-22.618112 21.846016-34.371584 32.305152-11.743232 10.446848-25.069568 19.355648-35.657728 30.828544-22.3232 24.188928-21.096448 55.056384-21.090304 85.231616z m-7.538688 130.189312c0.098304 24.51456 21.159936 44.664832 47.04256 45.006848 26.157056 0.346112 48.427008-20.598784 48.31232-45.438976-0.11264-24.301568-21.403648-44.57472-47.271936-44.998656-26.200064-0.43008-48.181248 20.338688-48.082944 45.430784z" p-id="1378"></path></svg>