<?xml version="1.0" standalone="no"?><!DOCTYPE svg PUBLIC "-//W3C//DTD SVG 1.1//EN" "http://www.w3.org/Graphics/SVG/1.1/DTD/svg11.dtd"><svg t="1544235696397" class="icon" style="" viewBox="0 0 1047 1024" version="1.1" xmlns="http://www.w3.org/2000/svg" p-id="7141" xmlns:xlink="http://www.w3.org/1999/xlink" width="130.875" height="128"><defs><style type="text/css"></style></defs><path d="M523.591909 924.24851c-46.735757 0-91.742246-6.05244-134.837438-16.246022L205.224472 1024v-195.907921C80.717139 743.676471 0.101371 611.432936 0.101371 462.124251 0.101371 206.920623 234.485516 0.022745 523.591909 0.022745c289.106393 0 523.467785 206.897877 523.467785 462.101506 0 255.226382-234.361392 462.124259-523.467785 462.124259z m0-878.013339c-263.963739 0-477.960718 186.192162-477.960718 415.88908 0 141.276688 81.139099 265.897789 204.872812 341.075463l0.068261 38.681006L250.731539 841.971734v91.014133l70.331171-45.14301c-2.161586-0.796374-4.436939-1.365212-6.575771-2.184339l44.938228-33.333926a539.804822 539.804822 0 0 0 164.166742 25.711493c263.963739 0 477.960718-186.214916 477.960718-415.911834S787.555648 46.235171 523.591909 46.235171z" fill="#FFFFFF" p-id="7142"></path><path d="M273.485072 409.654604a68.2606 68.2606 0 1 1 0 136.521199 68.2606 68.2606 0 0 1 0-136.521199zM546.52747 409.654604a68.2606 68.2606 0 1 1 0 136.521199 68.2606 68.2606 0 0 1 0-136.521199zM796.816336 409.654604a68.2606 68.2606 0 1 1 0 136.521199 68.2606 68.2606 0 0 1 0-136.521199z" fill="#FFFFFF" p-id="7143"></path></svg>
