<?xml version="1.0" standalone="no"?><!DOCTYPE svg PUBLIC "-//W3C//DTD SVG 1.1//EN" "http://www.w3.org/Graphics/SVG/1.1/DTD/svg11.dtd"><svg t="1547791192099" class="icon" style="" viewBox="0 0 1024 1024" version="1.1" xmlns="http://www.w3.org/2000/svg" p-id="1159" xmlns:xlink="http://www.w3.org/1999/xlink" width="200" height="200"><defs><style type="text/css"></style></defs><path d="M871.030784 1024H151.171072c-6.377472-1.175552-12.754944-2.357248-19.130368-3.528704-64.862208-11.890688-107.737088-48.275456-124.925952-112.805888-3.19488-11.993088-4.784128-24.414208-7.114752-36.634624V154.769408c0.557056-1.644544 1.37216-3.24608 1.636352-4.937728 10.831872-69.885952 49.772544-116.736 116.068352-140.662784C129.609728 4.870144 142.391296 2.994176 154.76736 0h718.061568c6.68672 1.200128 13.377536 2.363392 20.058112 3.606528 62.55616 11.636736 105.201664 46.133248 123.162624 108.285952 3.698688 12.791808 5.353472 26.169344 7.950336 39.278592v719.859712c-0.60416 2.881536-1.492992 5.740544-1.763328 8.654848-6.055936 65.134592-48.410624 117.20704-111.12448 135.667712-13.078528 3.848192-26.707968 5.812224-40.081408 8.646656zM396.84096 498.581504c2.387968 3.477504 4.284416 6.150144 6.0928 8.884224 44.050432 66.725888 88.090624 133.453824 132.134912 200.179712 12.58496 19.064832 28.516352 19.515392 42.3936 1.304576 58.112-76.251136 116.252672-152.48384 174.393344-228.716544 2.011136-2.637824 4.149248-5.18144 7.575552-9.447424 0 24.768512-0.106496 46.94016 0.043008 69.111808 0.088064 12.826624 8.507392 22.288384 20.269056 23.341056 12.24704 1.099776 21.901312-7.057408 24.25856-20.240384a3219.177472 3219.177472 0 0 1 8.497152-45.867008c7.448576-38.463488 15.220736-76.863488 22.401024-115.37408 3.477504-18.651136-8.378368-30.476288-26.734592-27.881472-15.407104 2.177024-30.867456 4.005888-46.292992 6.096896-38.852608 5.267456-77.719552 10.420224-116.525056 16.001024-13.25056 1.90464-20.488192 11.984896-19.089408 24.829952 1.275904 11.708416 11.15136 19.750912 24.303616 18.60608 10.401792-0.905216 20.692992-3.090432 31.031296-4.739072 14.501888-2.31424 28.99968-4.657152 45.787136-7.354368L556.46208 632.459264c-2.392064-3.424256-4.288512-6.012928-6.053888-8.685568-44.197888-66.983936-88.356864-133.994496-132.589568-200.957952-10.532864-15.939584-26.380288-16.934912-38.651904-2.53952-60.672 71.159808-121.36448 142.30528-181.82144 213.643264-2.793472 3.29728-4.788224 8.398848-4.857856 12.695552-0.44032 26.677248-0.239616 53.366784-0.190464 80.052224 0.004096 2.168832 0.458752 4.337664 0.868352 7.94624l203.675648-236.032z" p-id="1160"></path></svg>