<?xml version="1.0" standalone="no"?><!DOCTYPE svg PUBLIC "-//W3C//DTD SVG 1.1//EN" "http://www.w3.org/Graphics/SVG/1.1/DTD/svg11.dtd"><svg t="1545289196043" class="icon" style="" viewBox="0 0 1024 1024" version="1.1" xmlns="http://www.w3.org/2000/svg" p-id="3001" xmlns:xlink="http://www.w3.org/1999/xlink" width="200" height="200"><defs><style type="text/css"></style></defs><path d="M752.882 1024c-66.065 0-151.356-44.01-211.274-80.94-80.243-49.445-166.687-117.853-243.416-192.608l-0.276-0.276-24.362-24.368C198.793 649.085 130.393 562.635 80.94 482.393 44.016 422.473 0 337.183 0 271.118c0-70.697 50.554-145.735 72.291-174.713C89.25 73.791 148.504 0 198.851 0c20.674 0 42.937 13.531 72.198 43.877 25.88 26.832 50.715 60.184 66.988 83.44 21.858 31.222 42.07 63.911 56.924 92.053 24.05 45.563 26.832 65.1 26.832 75.834 0 21.661-11.316 40.45-33.625 55.84-14.69 10.132-32.324 17.76-49.375 25.14-11.501 4.974-29.867 12.914-36.872 18.5 2.446 10.351 13.126 35.348 41.995 77.732 26.901 39.492 61.685 82.29 93.11 114.563 32.267 31.42 75.06 66.21 114.564 93.11 42.372 28.858 67.369 39.544 77.727 41.99 5.58-7.005 13.525-25.365 18.5-36.866 7.373-17.056 15.002-34.69 25.14-49.381 15.389-22.31 34.178-33.619 55.84-33.619 10.733 0 30.27 2.782 75.839 26.826 28.136 14.854 60.83 35.066 92.048 56.924 23.255 16.279 56.607 41.114 83.445 66.988 30.34 29.26 43.871 51.524 43.871 72.199 0 50.346-73.785 109.6-96.4 126.56-28.983 21.736-104.02 72.29-174.718 72.29zM340.529 707.28" p-id="3002" fill="#41A0FE"></path></svg>