<?xml version="1.0" standalone="no"?><!DOCTYPE svg PUBLIC "-//W3C//DTD SVG 1.1//EN" "http://www.w3.org/Graphics/SVG/1.1/DTD/svg11.dtd"><svg t="1548387550632" class="icon" style="" viewBox="0 0 1024 1024" version="1.1" xmlns="http://www.w3.org/2000/svg" p-id="8959" xmlns:xlink="http://www.w3.org/1999/xlink" width="200" height="200"><defs><style type="text/css"></style></defs><path d="M874.574782 871.946932H145.372925c-35.848463 0-77.483722-37.231973-77.483722-83.123163V344.634178c0-54.552453 55.514361-82.260515 83.268472-82.260515H278.844799l66.614164-110.831225h333.083097l66.626444 110.831225h127.669728c55.515385 0 83.272565 55.417147 83.272565 83.122139V789.688463c0 43.294039-45.105291 82.258469-81.536015 82.258469z m26.021654-526.45113c-0.272199-2.191922-8.184403-27.704992-27.758204-27.704992H713.754027l-15.260566-26.895557-49.552579-83.935668H376.886743l-50.444903 83.918272-16.167214 26.912953H151.157675c-4.13211 0.443092-27.754111 9.292644-27.754111 26.843368v444.189591c0 14.69263 15.706727 27.191292 22.131044 27.706016h729.040174c8.268314-0.623193 26.021653-15.910365 26.021654-26.841322V345.495802zM512 733.409692c-107.313098 0-194.298218-86.833671-194.298218-193.956433 0-107.125833 86.98512-193.957457 194.298218-193.957457s194.298218 86.831624 194.298218 193.957457c0 107.122763-86.98512 193.956434-194.298218 193.956433z m0-332.496743c-76.520791 0-138.783857 62.153572-138.783857 138.54031 0 76.382645 62.263066 138.539286 138.783857 138.539286 76.518744 0 138.78488-62.156642 138.78488-138.539286 0-76.386738-62.266136-138.54031-138.78488-138.54031z" fill="#bfbfbf" p-id="8960"></path></svg>
