<?xml version="1.0" standalone="no"?><!DOCTYPE svg PUBLIC "-//W3C//DTD SVG 1.1//EN" "http://www.w3.org/Graphics/SVG/1.1/DTD/svg11.dtd"><svg t="1545182726805" class="icon" style="" viewBox="0 0 1024 1024" version="1.1" xmlns="http://www.w3.org/2000/svg" p-id="3676" xmlns:xlink="http://www.w3.org/1999/xlink" width="200" height="200"><defs><style type="text/css"></style></defs><path d="M591.36 593.92v87.04h69.12V550.4L640 593.92z m0-130.56v76.8h69.12V419.84L640 463.36z" fill="#41A0FE" p-id="3677"></path><path d="M512 0C230.4 0 0 230.4 0 512s230.4 512 512 512 512-230.4 512-512S793.6 0 512 0zM345.6 729.6h-58.88l15.36-230.4h58.88L345.6 729.6z m87.04-5.12l-64 23.04V476.16h-81.92v-58.88h81.92v-64l-76.8 7.68v-64L512 276.48l-12.8 61.44-64 7.68v69.12h79.36l-23.04 58.88h-53.76v250.88z m291.84 10.24H499.2v-5.12h-46.08l-12.8-230.4h58.88L512 680.96h12.8V279.04h207.36v401.92h20.48l-28.16 53.76z" fill="#41A0FE" p-id="3678"></path><path d="M591.36 332.8h69.12v76.8h-69.12z" fill="#41A0FE" p-id="3679"></path></svg>