<?xml version="1.0" standalone="no"?><!DOCTYPE svg PUBLIC "-//W3C//DTD SVG 1.1//EN" "http://www.w3.org/Graphics/SVG/1.1/DTD/svg11.dtd"><svg t="1547791153348" class="icon" style="" viewBox="0 0 1024 1024" version="1.1" xmlns="http://www.w3.org/2000/svg" p-id="1050" xmlns:xlink="http://www.w3.org/1999/xlink" width="200" height="200"><defs><style type="text/css"></style></defs><path d="M498.96448 1.099776h20.688896c20.424704 4.18816 35.866624 16.771072 51.585024 29.202432 16.928768 13.389824 34.164736 26.456064 51.857408 38.844416 27.480064 19.243008 56.154112 36.614144 89.317376 44.740608 38.408192 9.414656 77.57824 13.621248 117.102592 14.374912 19.326976 0.370688 38.694912-0.704512 57.995264 0.055296 26.175488 1.028096 49.176576 19.324928 57.044992 43.948032 1.007616 3.160064 2.117632 6.28736 3.182592 9.433088v213.57568c-0.425984 2.803712-1.134592 5.597184-1.234944 8.411136-1.845248 52.047872-7.684096 103.65952-17.965056 154.732544-16.781312 83.331072-44.832768 162.533376-90.855424 234.8032-60.811264 95.483904-142.893056 166.684672-249.42592 208.912384-22.17984 8.794112-45.699072 14.288896-68.601856 21.303296h-20.688896c-5.054464-1.34144-10.108928-2.674688-15.157248-4.026368-101.347328-27.152384-184.363008-82.47296-252.090368-160.77824-51.888128-59.99616-87.906304-128.79872-112.928768-203.388928-23.826432-71.02464-36.513792-144.156672-41.662464-218.671104-0.95232-13.7728-2.039808-27.53536-3.065856-41.299968V181.696512c0.44032-0.610304 1.11616-1.165312 1.288192-1.841152 8.282112-32.75776 33.748992-51.798016 68.073472-52.140032 33.345536-0.329728 66.748416-0.679936 100.00384-2.859008 29.272064-1.916928 58.345472-6.662144 86.171648-16.572416 39.419904-14.041088 72.747008-37.933056 105.177088-63.408128 20.365312-15.990784 36.073472-38.8096 64.188416-43.776z m-40.531968 565.229568c-2.44736-2.29376-4.37248-4.079616-6.27712-5.881856-40.914944-38.787072-81.7664-77.635584-122.765312-116.332544-17.24416-16.277504-43.503616-15.894528-59.17696 0.507904-15.593472 16.316416-14.135296 39.82336 3.454976 56.578048 48.064512 45.787136 96.118784 91.590656 144.140288 137.422848 2.070528 1.980416 3.837952 4.284416 5.650432 6.510592 10.901504 13.408256 25.071616 18.59584 42.172416 16.283648 14.235648-1.92512 22.556672-12.115968 32.120832-21.327872 64.512-62.121984 129.452032-123.809792 194.236416-185.655296 28.203008-26.92096 56.502272-53.745664 84.488192-80.879616 16.81408-16.30208 16.248832-38.893568-0.776192-54.77376-16.859136-15.72864-40.749056-15.353856-58.517504 1.490944-56.971264 54.011904-113.774592 108.197888-170.647552 162.306048-29.196288 27.772928-58.411008 55.523328-88.102912 83.750912z" p-id="1051"></path></svg>