<?xml version="1.0" standalone="no"?><!DOCTYPE svg PUBLIC "-//W3C//DTD SVG 1.1//EN" "http://www.w3.org/Graphics/SVG/1.1/DTD/svg11.dtd"><svg t="1547791213488" class="icon" style="" viewBox="0 0 1024 1024" version="1.1" xmlns="http://www.w3.org/2000/svg" p-id="1268" xmlns:xlink="http://www.w3.org/1999/xlink" width="200" height="200"><defs><style type="text/css"></style></defs><path d="M1024 478.86336v66.271232c-2.433024 17.901568-4.288512 35.903488-7.389184 53.686272-16.709632 95.797248-57.04704 180.471808-121.812992 253.001728-77.66016 86.970368-174.108672 141.494272-288.68608 163.426304-20.144128 3.856384-40.640512 5.879808-60.973056 8.749056h-66.271232c-2.363392-0.602112-4.698112-1.390592-7.098368-1.773568-27.672576-4.431872-55.74656-7.114752-82.970624-13.459456C196.718592 963.989504 40.466432 797.35808 8.45824 604.045312 5.218304 584.480768 2.797568 564.77696 0 545.13664v-66.271232c2.430976-17.901568 4.286464-35.903488 7.389184-53.686272 16.709632-95.7952 57.030656-180.488192 121.819136-252.995584 77.93664-87.220224 174.65344-141.930496 289.736704-163.555328 19.8144-3.723264 39.938048-5.79584 59.918336-8.628224h66.271232c2.717696 0.626688 5.414912 1.390592 8.159232 1.857536 30.070784 5.09952 61.069312 7.061504 90.07104 15.722496 203.49952 60.766208 327.960576 195.448832 372.211712 403.456 4.046848 19.013632 5.67296 38.539264 8.423424 57.827328z m-704.34816 56.498176c38.15424 36.980736 75.749376 73.828352 113.876992 110.118912 11.472896 10.917888 26.011648 12.638208 39.481344 4.440064 12.630016-7.688192 24.942592-16.596992 35.46112-26.939392 73.394176-72.126464 146.290688-144.76288 219.33056-217.253888 2.701312-2.680832 5.255168-5.511168 7.819264-8.210432-15.572992-26.171392-30.62784-51.464192-46.268416-77.74208a12041726.01344 12041726.01344 0 0 1-231.714816 230.107136l-90.886144-93.689856-47.099904 79.169536z" p-id="1269"></path></svg>