<svg class="icon" viewBox="0 0 1024 1024" xmlns="http://www.w3.org/2000/svg" width="200" height="200"><defs><style/></defs><path d="M511.998 66.542C265.98 66.542 66.541 265.982 66.541 512c0 246.017 199.44 445.457 445.457 445.457 246.02 0 445.46-199.44 445.46-445.457 0-246.018-199.44-445.458-445.46-445.458zm0 863.267c-230.747 0-417.81-187.057-417.81-417.809 0-230.754 187.063-417.81 417.81-417.81 230.749 0 417.81 187.056 417.81 417.81 0 230.752-187.061 417.809-417.81 417.809zm-192.04-492.681c26.564 0 48.096-27.03 48.096-60.375s-21.532-60.375-48.095-60.375-48.096 27.03-48.096 60.375 21.533 60.375 48.096 60.375zm372.484 0c26.562 0 48.096-27.03 48.096-60.375s-21.534-60.375-48.096-60.375-48.095 27.03-48.095 60.375 21.533 60.375 48.095 60.375zM216.02 547.645C226.451 702.032 354.968 824.038 512 824.038s285.547-122.006 295.978-276.393H216.02z"/></svg>