<?xml version="1.0" standalone="no"?><!DOCTYPE svg PUBLIC "-//W3C//DTD SVG 1.1//EN" "http://www.w3.org/Graphics/SVG/1.1/DTD/svg11.dtd"><svg t="1543214109312" class="icon" style="" viewBox="0 0 1024 1024" version="1.1" xmlns="http://www.w3.org/2000/svg" p-id="2799" xmlns:xlink="http://www.w3.org/1999/xlink" width="128" height="128"><defs><style type="text/css"></style></defs><path d="M512 1024C229.1712 1024 0 794.8288 0 512S229.288229 0 512 0C794.8288 0 1024 229.1712 1024 512S794.8288 1024 512 1024z m278.235429-338.7392v-290.845257c0-18.607543-14.365257-32.592457-32.826515-32.592457h-100.644571c-32.241371 0-44.968229-68.286171-78.262857-68.286172h-145.466515c-22.381714 0-33.557943 68.286171-67.115885 68.286172H265.303771c-18.607543 0-32.855771 14.101943-32.855771 32.592457v290.845257c0 18.461257 14.248229 34.377143 32.855771 34.377143h492.222172c18.490514 0 32.826514-15.915886 32.826514-34.377143h-0.117028z m-93.7984-221.271771a19.104914 19.104914 0 1 1 19.192685-19.075658 19.192686 19.192686 0 0 1-19.192685 19.075658z m-185.022172 195.262171a127.473371 127.473371 0 1 1 0-254.976 127.473371 127.473371 0 0 1 0 254.976z m0-223.056457a95.583086 95.583086 0 1 0 0 191.136914 95.583086 95.583086 0 0 0 0-191.136914z" p-id="2800"></path></svg>