<?xml version="1.0" standalone="no"?><!DOCTYPE svg PUBLIC "-//W3C//DTD SVG 1.1//EN" "http://www.w3.org/Graphics/SVG/1.1/DTD/svg11.dtd"><svg t="1544173835663" class="icon" style="" viewBox="0 0 1025 1024" version="1.1" xmlns="http://www.w3.org/2000/svg" p-id="6231" xmlns:xlink="http://www.w3.org/1999/xlink" width="128.125" height="128"><defs><style type="text/css"></style></defs><path d="M468.13582 34.797568c-35.639296 0-30.152704 15.0528-49.34656 17.645568-19.187712 2.582528 3.887104-7.286784-53.682176 3.067904-57.56928 10.366976-77.903872 80.273408-80.644096 106.182656-2.736128 25.890816-3.428352 98.689024-1.595392 137.535488 5.4784 23.304192-13.709312 23.304192-13.709312 23.304192-34.49856-2.091008-18.98496 99.448832-18.98496 99.448832 4.954112 25.030656-1.783808 37.492736 49.289216 56.870912 24.332288 65.47456 87.894016 100.096 87.894016 100.096s0.319488 40.40704 1.28 70.313984c-5.199872-2.451456 17.752064 76.419072-140.918784 98.54976-158.670848 22.102016-189.05088 70.658048-218.96192 97.677312-29.91104 27.039744-28.749824 158.066688-28.749824 158.066688L1024.001932 1004.077056c0 0-7.606272-131.549184-37.517312-158.588928-29.915136-27.019264-62.500864-75.575296-221.167616-97.677312-154.253312-21.086208-128.882688-98.850816-129.978368-103.507968 0.282624-11.78624 1.95584-61.7472 1.95584-61.7472s53.866496-40.165376 78.190592-105.648128c38.28736-22.833152 52.86912-26.013696 59.201536-52.328448 0 0 11.259904-102.590464-24.891392-102.07232 0 0-17.13152 5.208064-11.644928-18.10432 5.4784-23.308288 3.653632-96.098304 0.91136-121.993216-2.74432-25.894912 1.394688-99.919872-56.178688-110.278656-39.292928-6.909952-44.419072-0.069632-63.608832-2.660352-19.187712-2.586624-42.031104-49.543168-77.674496-49.543168L468.13582 34.797568z" p-id="6232"></path></svg>