<?xml version="1.0" standalone="no"?><!DOCTYPE svg PUBLIC "-//W3C//DTD SVG 1.1//EN" "http://www.w3.org/Graphics/SVG/1.1/DTD/svg11.dtd"><svg t="1544600318302" class="icon" style="" viewBox="0 0 1024 1024" version="1.1" xmlns="http://www.w3.org/2000/svg" p-id="3054" xmlns:xlink="http://www.w3.org/1999/xlink" width="128" height="128"><defs><style type="text/css"></style></defs><path d="M647.0462325 520.91470835l-190.42347287 120.23257215A28.73253584 28.73253584 0 0 1 412.57946075 616.85552874v-240.46514429a28.73253584 28.73253584 0 0 1 44.07643907-24.29175176l190.39033268 120.23257214a28.73253584 28.73253584 0 0 1 0 48.58350352z" p-id="3055"></path><path d="M164.02811259 147.45802272C136.58804375 147.45802272 114.31784297 170.78870926 114.31784297 199.52124511V824.51189507C114.31784297 853.21129074 136.58804375 876.54197728 164.02811259 876.54197728h695.94377482c27.44006883 0 49.71026963-23.33068654 49.71026962-52.06322239V199.48810493C909.68215703 170.78870926 887.41195625 147.45802272 859.97188741 147.45802272h-695.94377482z m-12.89152992-66.28035952H872.89655751C929.79824615 81.1776632 975.96251653 129.39662475 975.96251653 188.88324741v646.23350518c0 59.48662267-46.1642704 107.70558419-103.0990992 107.70558421H151.10344249C94.20175385 942.8223368 48.03748347 894.60337525 48.03748347 835.11675259v-646.23350518C48.03748347 129.39662475 94.20175385 81.1776632 151.13658267 81.1776632z" p-id="3056"></path></svg>